<svg xmlns="http://www.w3.org/2000/svg" class="anime push viewport" viewBox="0 0 375.17 407.65"><path d="M375.17 372.88H375V27.76a7 7 0 0 0-6.22-7L184.81 0a7 7 0 0 0-7.74 6.18A6.79 6.79 0 0 0 177 7v13.76H97.37a7 7 0 0 0-7 7v80.89c4.55 0 9.73 0 14 .08v-74H177v13.96a19.46 19.46 0 0 1 .67 4.13 14.75 14.75 0 0 1-1.07 6.06c.08.64.13 1.29.15 1.93a32.67 32.67 0 0 1 .52 7.65s-.1.06-.27.08v304.34h-30c-2.37.39-15.44 0-16.62 0l-8-.11v.07h-18V295.3h-14v77.56h-.68v2.92a72 72 0 0 1 1 8.37c1.69.82 3.35 1.73 5 2.71H177v13.77a7 7 0 0 0 7 7 5.37 5.37 0 0 0 .8 0l183.6-20.72h3.6c.93-1.22 1.89-2.4 2.88-3.51-.07-.85-.13-1.7-.17-2.55a40.36 40.36 0 0 1 .46-7.97zm-14.14.75-170 19.2v-378L361 34z" data-name="Layer 1"/><g data-name="Layer 2"><circle cx="223.36" cy="202.42" r="9.33"/><path d="m145.38 198.93-43.86-43.86a6.86 6.86 0 0 0-9.69 9.7L124 196.93H6.85a6.85 6.85 0 1 0 0 13.7H124l-32.17 32.16a6.85 6.85 0 1 0 9.69 9.69l43.86-43.86a6.86 6.86 0 0 0 0-9.69z"/></g></svg>