<svg xmlns="http://www.w3.org/2000/svg" class="anime push viewport" viewBox="0 0 34.952 34.952"><path d="M24.333 23.109H12.902a.5.5 0 0 1 0-1h11.431a.5.5 0 0 1 0 1z"/><path d="M10.183 25.829c-1.776 0-3.221-1.444-3.221-3.221s1.444-3.221 3.221-3.221c1.775 0 3.22 1.444 3.22 3.221s-1.445 3.221-3.22 3.221zm0-5.441c-1.225 0-2.221.996-2.221 2.221s.996 2.221 2.221 2.221c1.224 0 2.22-.996 2.22-2.221s-.997-2.221-2.22-2.221zm16.871 5.441c-1.776 0-3.221-1.444-3.221-3.221s1.444-3.221 3.221-3.221 3.221 1.444 3.221 3.221-1.445 3.221-3.221 3.221zm0-5.441c-1.225 0-2.221.996-2.221 2.221s.996 2.221 2.221 2.221 2.221-.996 2.221-2.221-.997-2.221-2.221-2.221z"/><path d="M24.337 23.109H12.904a.5.5 0 0 1 0-1h11.433a.5.5 0 0 1 0 1z"/><path d="M32.175 23.109h-2.403a.5.5 0 0 1 0-1h2.403c.619 0 1.138-.444 1.233-1.056l.533-3.413a.875.875 0 0 0-.169-.67.88.88 0 0 0-.598-.344l-6.661-.812a.504.504 0 0 1-.261-.113l-6.021-5.061a2.212 2.212 0 0 0-1.422-.518H9.39c-.465 0-.892.234-1.143.626l-2.815 4.405a.49.49 0 0 1-.276.209l-3.4 1.025a1.066 1.066 0 0 0-.742 1.181l.476 3.049c.135.863.867 1.49 1.741 1.49H7.46a.5.5 0 0 1 0 1H3.229A2.747 2.747 0 0 1 .5 20.771l-.476-3.049a2.07 2.07 0 0 1 1.441-2.292l3.224-.972 2.716-4.25A2.347 2.347 0 0 1 9.39 9.123h9.421c.754 0 1.487.267 2.064.752l5.907 4.965 6.514.794c.512.063.964.322 1.274.733.311.41.438.917.359 1.427l-.533 3.413a2.236 2.236 0 0 1-2.221 1.902z"/><path d="M21.16 16.204H9.692a.5.5 0 0 1 0-1H21.16a.5.5 0 0 1 0 1z"/></svg>