<svg xmlns="http://www.w3.org/2000/svg" class="anime push viewport" viewBox="0 0 512 512"><path d="M256 0c-5.888 0-10.667 4.779-10.667 10.667v490.667c0 5.888 4.779 10.667 10.667 10.667s10.667-4.779 10.667-10.667V10.667C266.667 4.779 261.888 0 256 0z"/><path d="M256 42.667c-76.459 0-138.67 47.851-138.67 106.67 0 40.597 29.184 77.12 76.181 95.317 1.28.491 2.56.725 3.861.725 4.267 0 8.32-2.581 9.941-6.827 2.155-5.483-.576-11.648-6.08-13.781-38.592-14.955-62.571-43.861-62.571-75.435.002-47.061 52.652-85.333 117.34-85.333s117.33 38.272 117.33 85.333c0 5.888 4.779 10.667 10.667 10.667s10.667-4.779 10.667-10.667c0-58.816-62.208-106.67-138.67-106.67zm62.46 224.703c-5.483-2.155-11.648.576-13.781 6.08-2.155 5.483.576 11.648 6.08 13.781 38.592 14.955 62.571 43.861 62.571 75.435-.001 47.061-52.651 85.333-117.33 85.333s-117.33-38.272-117.33-85.333c0-5.888-4.779-10.667-10.667-10.667s-10.667 4.779-10.667 10.667c0 58.816 62.208 106.67 138.67 106.67s138.67-47.851 138.67-106.67c0-40.598-29.184-77.12-76.203-95.296z"/><path d="M318.59 267.44c-31.211-12.587-46.016-17.472-61.653-22.635-13.888-4.587-28.245-9.344-55.701-20.011-5.461-2.197-11.648.576-13.803 6.059s.576 11.669 6.059 13.803c27.989 10.88 42.624 15.701 56.768 20.373 15.317 5.056 29.781 9.835 60.373 22.165 1.301.512 2.645.768 3.989.768 4.224 0 8.213-2.517 9.877-6.656 2.219-5.44-.426-11.648-5.909-13.866z"/></svg>